<mxfile host="Electron" agent="Mozilla/5.0 (Windows NT 10.0; Win64; x64) AppleWebKit/537.36 (KHTML, like Gecko) draw.io/26.0.4 Chrome/128.0.6613.186 Electron/32.2.5 Safari/537.36" version="26.0.4">
  <diagram name="Webhook + Azure Functions" id="ly0JMjOMVKZkvVRpWAMl">
    <mxGraphModel dx="1728" dy="997" grid="0" gridSize="10" guides="1" tooltips="1" connect="1" arrows="1" fold="1" page="1" pageScale="1" pageWidth="1169" pageHeight="827" math="0" shadow="0">
      <root>
        <mxCell id="0" />
        <mxCell id="1" parent="0" />
        <mxCell id="Qm2beGbuhuORFSTr5UQg-9" value="Azure" style="sketch=0;outlineConnect=0;html=1;whiteSpace=wrap;fontSize=12;fontStyle=0;shape=mxgraph.aws4.group;grIcon=mxgraph.aws4.group_region;strokeColor=none;fillColor=#dae8fc;verticalAlign=top;align=left;spacingLeft=30;dashed=1;" parent="1" vertex="1">
          <mxGeometry x="318" y="150" width="660" height="525" as="geometry" />
        </mxCell>
        <mxCell id="Qm2beGbuhuORFSTr5UQg-12" value="Storage" style="sketch=0;outlineConnect=0;html=1;whiteSpace=wrap;fontSize=12;fontStyle=0;shape=mxgraph.aws4.group;grIcon=mxgraph.aws4.group_region;verticalAlign=top;align=left;spacingLeft=30;dashed=1;strokeColor=none;fillColor=#dae8fc;gradientColor=#7ea6e0;" parent="1" vertex="1">
          <mxGeometry x="559" y="188" width="370" height="330" as="geometry" />
        </mxCell>
        <mxCell id="kfA8HxbeG8f3ouB9q9vt-2" style="edgeStyle=orthogonalEdgeStyle;rounded=0;orthogonalLoop=1;jettySize=auto;html=1;entryX=0.5;entryY=1;entryDx=0;entryDy=0;entryPerimeter=0;" edge="1" parent="1" source="kfA8HxbeG8f3ouB9q9vt-1" target="Qm2beGbuhuORFSTr5UQg-5">
          <mxGeometry relative="1" as="geometry" />
        </mxCell>
        <mxCell id="Qm2beGbuhuORFSTr5UQg-7" value="Dataverse" style="sketch=0;outlineConnect=0;html=1;whiteSpace=wrap;fontSize=12;fontStyle=0;shape=mxgraph.aws4.group;grIcon=mxgraph.aws4.group_region;strokeColor=none;fillColor=#d5e8d4;verticalAlign=top;align=left;spacingLeft=30;dashed=1;" parent="1" vertex="1">
          <mxGeometry x="123" y="150" width="180" height="528" as="geometry" />
        </mxCell>
        <mxCell id="Qm2beGbuhuORFSTr5UQg-3" value="Webhook (CopyContact)" style="shape=image;verticalLabelPosition=bottom;verticalAlign=top;imageAspect=0;image=https://raw.githubusercontent.com/tetiana-nizdropa/drawio-icons/master/power-platform-icons/Dataverse_scalable.svg;aspect=fixed;" parent="1" vertex="1">
          <mxGeometry x="173" y="240" width="60" height="60" as="geometry" />
        </mxCell>
        <mxCell id="Qm2beGbuhuORFSTr5UQg-8" value="Gatilho: Create&lt;div&gt;Evento: PostOperation&lt;/div&gt;&lt;div&gt;Modo de execução: Síncrono&lt;/div&gt;" style="text;html=1;align=left;verticalAlign=middle;whiteSpace=wrap;rounded=0;" parent="1" vertex="1">
          <mxGeometry x="133" y="325" width="160" height="46" as="geometry" />
        </mxCell>
        <mxCell id="Qm2beGbuhuORFSTr5UQg-10" value="Compute" style="sketch=0;outlineConnect=0;html=1;whiteSpace=wrap;fontSize=12;fontStyle=0;shape=mxgraph.aws4.group;grIcon=mxgraph.aws4.group_region;verticalAlign=top;align=left;spacingLeft=30;dashed=1;strokeColor=none;fillColor=#dae8fc;gradientColor=#7ea6e0;" parent="1" vertex="1">
          <mxGeometry x="363" y="189" width="180" height="331" as="geometry" />
        </mxCell>
        <mxCell id="Qm2beGbuhuORFSTr5UQg-1" value="Storage Account" style="image;aspect=fixed;html=1;points=[];align=center;fontSize=12;image=img/lib/azure2/storage/Storage_Accounts.svg;" parent="1" vertex="1">
          <mxGeometry x="678" y="250" width="62.5" height="50" as="geometry" />
        </mxCell>
        <mxCell id="Qm2beGbuhuORFSTr5UQg-5" value="&lt;span style=&quot;background-color: light-dark(#ffffff, var(--ge-dark-color, #121212)); line-height: 190%;&quot;&gt;Blob&lt;/span&gt;" style="verticalLabelPosition=bottom;html=1;verticalAlign=top;align=center;strokeColor=none;fillColor=#00BEF2;shape=mxgraph.azure.storage_blob;" parent="1" vertex="1">
          <mxGeometry x="844" y="252.5" width="50" height="45" as="geometry" />
        </mxCell>
        <mxCell id="Qm2beGbuhuORFSTr5UQg-15" style="edgeStyle=orthogonalEdgeStyle;rounded=0;orthogonalLoop=1;jettySize=auto;html=1;" parent="1" source="Qm2beGbuhuORFSTr5UQg-1" target="Qm2beGbuhuORFSTr5UQg-5" edge="1">
          <mxGeometry relative="1" as="geometry" />
        </mxCell>
        <mxCell id="Qm2beGbuhuORFSTr5UQg-13" style="edgeStyle=orthogonalEdgeStyle;rounded=0;orthogonalLoop=1;jettySize=auto;html=1;" parent="1" source="Qm2beGbuhuORFSTr5UQg-3" target="Qm2beGbuhuORFSTr5UQg-2" edge="1">
          <mxGeometry relative="1" as="geometry" />
        </mxCell>
        <mxCell id="Qm2beGbuhuORFSTr5UQg-16" style="edgeStyle=orthogonalEdgeStyle;rounded=0;orthogonalLoop=1;jettySize=auto;html=1;" parent="1" source="Qm2beGbuhuORFSTr5UQg-2" target="Qm2beGbuhuORFSTr5UQg-1" edge="1">
          <mxGeometry relative="1" as="geometry">
            <Array as="points">
              <mxPoint x="621" y="274" />
              <mxPoint x="621" y="274" />
            </Array>
          </mxGeometry>
        </mxCell>
        <mxCell id="Qm2beGbuhuORFSTr5UQg-17" value="Upload Json File" style="edgeLabel;html=1;align=center;verticalAlign=middle;resizable=0;points=[];" parent="Qm2beGbuhuORFSTr5UQg-16" vertex="1" connectable="0">
          <mxGeometry x="-0.1685" relative="1" as="geometry">
            <mxPoint x="49" y="-4" as="offset" />
          </mxGeometry>
        </mxCell>
        <mxCell id="Qm2beGbuhuORFSTr5UQg-2" value="Function: CopyContactBlob" style="image;aspect=fixed;html=1;points=[];align=center;fontSize=12;image=img/lib/azure2/compute/Function_Apps.svg;" parent="1" vertex="1">
          <mxGeometry x="413" y="240" width="68" height="60" as="geometry" />
        </mxCell>
        <mxCell id="kfA8HxbeG8f3ouB9q9vt-1" value="Multiplas Possibilidades" style="rounded=1;whiteSpace=wrap;html=1;fillColor=#d5e8d4;gradientColor=#97d077;strokeColor=#82b366;" vertex="1" parent="1">
          <mxGeometry x="809" y="590" width="120" height="60" as="geometry" />
        </mxCell>
      </root>
    </mxGraphModel>
  </diagram>
</mxfile>
